<svg xmlns="http://www.w3.org/2000/svg" xmlns:xlink="http://www.w3.org/1999/xlink" width="150" zoomAndPan="magnify" viewBox="0 0 112.5 37.5" height="50" preserveAspectRatio="xMidYMid meet" version="1.0"><defs><g/><clipPath id="28701eb215"><rect x="0" width="27" y="0" height="13"/></clipPath><clipPath id="00f26cb26e"><rect x="0" width="32" y="0" height="13"/></clipPath><clipPath id="c6e2317337"><path d="M 0.125 3 L 5 3 L 5 10 L 0.125 10 Z M 0.125 3 " clip-rule="nonzero"/></clipPath><clipPath id="74dd67bef6"><rect x="0" width="35" y="0" height="13"/></clipPath></defs><g transform="matrix(1, 0, 0, 1, 7, 12)"><g clip-path="url(#28701eb215)"><g fill="#ffffff" fill-opacity="1"><g transform="translate(0.944847, 9.463817)"><g><path d="M 4.296875 -5.640625 L 4.296875 -4.703125 L 1.84375 -4.703125 L 1.84375 -3.203125 L 4.078125 -3.203125 L 4.078125 -2.28125 L 1.84375 -2.28125 L 1.84375 0 L 0.734375 0 L 0.734375 -5.640625 Z M 4.296875 -5.640625 "/></g></g></g><g fill="#ffffff" fill-opacity="1"><g transform="translate(6.985493, 9.463817)"><g><path d="M 0.734375 0 L 0.734375 -5.640625 L 3 -5.640625 C 3.582031 -5.640625 4.019531 -5.503906 4.3125 -5.234375 C 4.613281 -4.960938 4.765625 -4.59375 4.765625 -4.125 C 4.765625 -3.78125 4.675781 -3.5 4.5 -3.28125 C 4.320312 -3.0625 4.0625 -2.894531 3.71875 -2.78125 L 3.71875 -2.703125 C 3.894531 -2.617188 4.035156 -2.5 4.140625 -2.34375 C 4.253906 -2.195312 4.363281 -1.976562 4.46875 -1.6875 L 5.03125 0 L 3.875 0 L 3.328125 -1.6875 C 3.273438 -1.851562 3.210938 -1.984375 3.140625 -2.078125 C 3.066406 -2.171875 2.972656 -2.238281 2.859375 -2.28125 C 2.753906 -2.320312 2.613281 -2.34375 2.4375 -2.34375 L 1.84375 -2.34375 L 1.84375 0 Z M 2.859375 -3.234375 C 3.398438 -3.234375 3.671875 -3.484375 3.671875 -3.984375 C 3.671875 -4.492188 3.398438 -4.75 2.859375 -4.75 L 1.84375 -4.75 L 1.84375 -3.234375 Z M 2.859375 -3.234375 "/></g></g></g><g fill="#ffffff" fill-opacity="1"><g transform="translate(13.739286, 9.463817)"><g><path d="M 1.84375 -2.46875 L 1.84375 -0.9375 L 4.53125 -0.9375 L 4.53125 0 L 0.734375 0 L 0.734375 -5.640625 L 4.46875 -5.640625 L 4.46875 -4.703125 L 1.84375 -4.703125 L 1.84375 -3.375 L 4.140625 -3.375 L 4.140625 -2.46875 Z M 1.84375 -2.46875 "/></g></g></g><g fill="#ffffff" fill-opacity="1"><g transform="translate(20.069046, 9.463817)"><g><path d="M 1.84375 -2.46875 L 1.84375 -0.9375 L 4.53125 -0.9375 L 4.53125 0 L 0.734375 0 L 0.734375 -5.640625 L 4.46875 -5.640625 L 4.46875 -4.703125 L 1.84375 -4.703125 L 1.84375 -3.375 L 4.140625 -3.375 L 4.140625 -2.46875 Z M 1.84375 -2.46875 "/></g></g></g></g></g><g transform="matrix(1, 0, 0, 1, 36, 12)"><g clip-path="url(#00f26cb26e)"><g fill="#ff2e63" fill-opacity="1"><g transform="translate(0.562229, 9.463817)"><g><path d="M 1.84375 0 L 0.734375 0 L 0.734375 -5.640625 L 1.84375 -5.640625 Z M 1.84375 0 "/></g></g></g><g fill="#ff2e63" fill-opacity="1"><g transform="translate(4.629189, 9.463817)"><g><path d="M 1.8125 0 L 0.734375 0 L 0.734375 -5.640625 L 2 -5.640625 L 4.265625 -2 L 4.375 -2.015625 L 4.375 -5.640625 L 5.4375 -5.640625 L 5.4375 0 L 4.296875 0 L 1.90625 -3.875 L 1.8125 -3.859375 Z M 1.8125 0 "/></g></g></g><g fill="#ff2e63" fill-opacity="1"><g transform="translate(12.292728, 9.463817)"><g><path d="M 2.5 0.078125 C 2.101562 0.078125 1.753906 0.03125 1.453125 -0.0625 C 1.148438 -0.15625 0.894531 -0.28125 0.6875 -0.4375 C 0.488281 -0.59375 0.335938 -0.765625 0.234375 -0.953125 L 0.84375 -1.703125 L 0.9375 -1.703125 C 1.101562 -1.453125 1.316406 -1.25 1.578125 -1.09375 C 1.835938 -0.945312 2.144531 -0.875 2.5 -0.875 C 2.789062 -0.875 3.007812 -0.9375 3.15625 -1.0625 C 3.3125 -1.195312 3.390625 -1.375 3.390625 -1.59375 C 3.390625 -1.726562 3.363281 -1.835938 3.3125 -1.921875 C 3.269531 -2.015625 3.191406 -2.09375 3.078125 -2.15625 C 2.960938 -2.21875 2.8125 -2.273438 2.625 -2.328125 L 1.90625 -2.484375 C 1.394531 -2.597656 1.015625 -2.789062 0.765625 -3.0625 C 0.515625 -3.332031 0.390625 -3.679688 0.390625 -4.109375 C 0.390625 -4.429688 0.46875 -4.710938 0.625 -4.953125 C 0.789062 -5.191406 1.023438 -5.378906 1.328125 -5.515625 C 1.628906 -5.648438 1.992188 -5.71875 2.421875 -5.71875 C 2.859375 -5.71875 3.226562 -5.660156 3.53125 -5.546875 C 3.84375 -5.429688 4.109375 -5.253906 4.328125 -5.015625 L 3.765625 -4.265625 L 3.671875 -4.265625 C 3.515625 -4.429688 3.332031 -4.554688 3.125 -4.640625 C 2.914062 -4.722656 2.679688 -4.765625 2.421875 -4.765625 C 2.117188 -4.765625 1.882812 -4.707031 1.71875 -4.59375 C 1.5625 -4.488281 1.484375 -4.34375 1.484375 -4.15625 C 1.484375 -3.976562 1.539062 -3.835938 1.65625 -3.734375 C 1.769531 -3.628906 1.960938 -3.546875 2.234375 -3.484375 L 2.96875 -3.328125 C 3.519531 -3.210938 3.914062 -3.015625 4.15625 -2.734375 C 4.40625 -2.460938 4.53125 -2.101562 4.53125 -1.65625 C 4.53125 -1.300781 4.453125 -0.992188 4.296875 -0.734375 C 4.148438 -0.472656 3.921875 -0.269531 3.609375 -0.125 C 3.304688 0.0078125 2.9375 0.078125 2.5 0.078125 Z M 2.5 0.078125 "/></g></g></g><g fill="#ff2e63" fill-opacity="1"><g transform="translate(18.5531, 9.463817)"><g><path d="M 4.515625 -5.640625 L 4.515625 -4.703125 L 2.890625 -4.703125 L 2.890625 0 L 1.78125 0 L 1.78125 -4.703125 L 0.15625 -4.703125 L 0.15625 -5.640625 Z M 4.515625 -5.640625 "/></g></g></g><g fill="#ff2e63" fill-opacity="1"><g transform="translate(24.208261, 9.463817)"><g><path d="M 5.40625 0 L 4.234375 0 L 3.8125 -1.296875 L 1.65625 -1.296875 L 1.234375 0 L 0.078125 0 L 2.03125 -5.640625 L 3.453125 -5.640625 Z M 2.671875 -4.453125 L 1.953125 -2.234375 L 3.5 -2.234375 L 2.78125 -4.453125 Z M 2.671875 -4.453125 "/></g></g></g></g></g><g transform="matrix(1, 0, 0, 1, 70, 12)"><g clip-path="url(#74dd67bef6)"><g clip-path="url(#c6e2317337)"><g fill="#ffffff" fill-opacity="1"><g transform="translate(0.272648, 9.463817)"><g><path d="M 4.515625 -5.640625 L 4.515625 -4.703125 L 2.890625 -4.703125 L 2.890625 0 L 1.78125 0 L 1.78125 -4.703125 L 0.15625 -4.703125 L 0.15625 -5.640625 Z M 4.515625 -5.640625 "/></g></g></g></g><g fill="#ffffff" fill-opacity="1"><g transform="translate(6.428939, 9.463817)"><g><path d="M 3.078125 0.078125 C 2.554688 0.078125 2.097656 -0.0234375 1.703125 -0.234375 C 1.304688 -0.441406 0.992188 -0.757812 0.765625 -1.1875 C 0.546875 -1.625 0.4375 -2.164062 0.4375 -2.8125 C 0.4375 -3.457031 0.546875 -3.992188 0.765625 -4.421875 C 0.992188 -4.859375 1.304688 -5.179688 1.703125 -5.390625 C 2.097656 -5.609375 2.554688 -5.71875 3.078125 -5.71875 C 3.585938 -5.71875 4.039062 -5.609375 4.4375 -5.390625 C 4.832031 -5.179688 5.140625 -4.859375 5.359375 -4.421875 C 5.578125 -3.992188 5.6875 -3.457031 5.6875 -2.8125 C 5.6875 -2.164062 5.578125 -1.625 5.359375 -1.1875 C 5.140625 -0.757812 4.832031 -0.441406 4.4375 -0.234375 C 4.039062 -0.0234375 3.585938 0.078125 3.078125 0.078125 Z M 3.078125 -0.890625 C 3.546875 -0.890625 3.90625 -1.039062 4.15625 -1.34375 C 4.414062 -1.65625 4.546875 -2.144531 4.546875 -2.8125 C 4.546875 -3.488281 4.414062 -3.976562 4.15625 -4.28125 C 3.90625 -4.59375 3.546875 -4.75 3.078125 -4.75 C 2.585938 -4.75 2.21875 -4.59375 1.96875 -4.28125 C 1.71875 -3.976562 1.59375 -3.488281 1.59375 -2.8125 C 1.59375 -2.144531 1.71875 -1.65625 1.96875 -1.34375 C 2.21875 -1.039062 2.585938 -0.890625 3.078125 -0.890625 Z M 3.078125 -0.890625 "/></g></g></g><g fill="#ffffff" fill-opacity="1"><g transform="translate(14.053929, 9.463817)"><g><path d="M 3.078125 0.078125 C 2.554688 0.078125 2.097656 -0.0234375 1.703125 -0.234375 C 1.304688 -0.441406 0.992188 -0.757812 0.765625 -1.1875 C 0.546875 -1.625 0.4375 -2.164062 0.4375 -2.8125 C 0.4375 -3.457031 0.546875 -3.992188 0.765625 -4.421875 C 0.992188 -4.859375 1.304688 -5.179688 1.703125 -5.390625 C 2.097656 -5.609375 2.554688 -5.71875 3.078125 -5.71875 C 3.585938 -5.71875 4.039062 -5.609375 4.4375 -5.390625 C 4.832031 -5.179688 5.140625 -4.859375 5.359375 -4.421875 C 5.578125 -3.992188 5.6875 -3.457031 5.6875 -2.8125 C 5.6875 -2.164062 5.578125 -1.625 5.359375 -1.1875 C 5.140625 -0.757812 4.832031 -0.441406 4.4375 -0.234375 C 4.039062 -0.0234375 3.585938 0.078125 3.078125 0.078125 Z M 3.078125 -0.890625 C 3.546875 -0.890625 3.90625 -1.039062 4.15625 -1.34375 C 4.414062 -1.65625 4.546875 -2.144531 4.546875 -2.8125 C 4.546875 -3.488281 4.414062 -3.976562 4.15625 -4.28125 C 3.90625 -4.59375 3.546875 -4.75 3.078125 -4.75 C 2.585938 -4.75 2.21875 -4.59375 1.96875 -4.28125 C 1.71875 -3.976562 1.59375 -3.488281 1.59375 -2.8125 C 1.59375 -2.144531 1.71875 -1.65625 1.96875 -1.34375 C 2.21875 -1.039062 2.585938 -0.890625 3.078125 -0.890625 Z M 3.078125 -0.890625 "/></g></g></g><g fill="#ffffff" fill-opacity="1"><g transform="translate(21.678919, 9.463817)"><g><path d="M 1.84375 -5.640625 L 1.84375 -0.9375 L 4.375 -0.9375 L 4.375 0 L 0.734375 0 L 0.734375 -5.640625 Z M 1.84375 -5.640625 "/></g></g></g><g fill="#ffffff" fill-opacity="1"><g transform="translate(27.727275, 9.463817)"><g><path d="M 2.5 0.078125 C 2.101562 0.078125 1.753906 0.03125 1.453125 -0.0625 C 1.148438 -0.15625 0.894531 -0.28125 0.6875 -0.4375 C 0.488281 -0.59375 0.335938 -0.765625 0.234375 -0.953125 L 0.84375 -1.703125 L 0.9375 -1.703125 C 1.101562 -1.453125 1.316406 -1.25 1.578125 -1.09375 C 1.835938 -0.945312 2.144531 -0.875 2.5 -0.875 C 2.789062 -0.875 3.007812 -0.9375 3.15625 -1.0625 C 3.3125 -1.195312 3.390625 -1.375 3.390625 -1.59375 C 3.390625 -1.726562 3.363281 -1.835938 3.3125 -1.921875 C 3.269531 -2.015625 3.191406 -2.09375 3.078125 -2.15625 C 2.960938 -2.21875 2.8125 -2.273438 2.625 -2.328125 L 1.90625 -2.484375 C 1.394531 -2.597656 1.015625 -2.789062 0.765625 -3.0625 C 0.515625 -3.332031 0.390625 -3.679688 0.390625 -4.109375 C 0.390625 -4.429688 0.46875 -4.710938 0.625 -4.953125 C 0.789062 -5.191406 1.023438 -5.378906 1.328125 -5.515625 C 1.628906 -5.648438 1.992188 -5.71875 2.421875 -5.71875 C 2.859375 -5.71875 3.226562 -5.660156 3.53125 -5.546875 C 3.84375 -5.429688 4.109375 -5.253906 4.328125 -5.015625 L 3.765625 -4.265625 L 3.671875 -4.265625 C 3.515625 -4.429688 3.332031 -4.554688 3.125 -4.640625 C 2.914062 -4.722656 2.679688 -4.765625 2.421875 -4.765625 C 2.117188 -4.765625 1.882812 -4.707031 1.71875 -4.59375 C 1.5625 -4.488281 1.484375 -4.34375 1.484375 -4.15625 C 1.484375 -3.976562 1.539062 -3.835938 1.65625 -3.734375 C 1.769531 -3.628906 1.960938 -3.546875 2.234375 -3.484375 L 2.96875 -3.328125 C 3.519531 -3.210938 3.914062 -3.015625 4.15625 -2.734375 C 4.40625 -2.460938 4.53125 -2.101562 4.53125 -1.65625 C 4.53125 -1.300781 4.453125 -0.992188 4.296875 -0.734375 C 4.148438 -0.472656 3.921875 -0.269531 3.609375 -0.125 C 3.304688 0.0078125 2.9375 0.078125 2.5 0.078125 Z M 2.5 0.078125 "/></g></g></g></g></g></svg>